<svg width="531" height="273" viewBox="0 0 531 273" fill="none" xmlns="http://www.w3.org/2000/svg">
<path d="M9.27199 13.6895V12.9755L13.346 8.98545C13.7193 8.62145 13.9993 8.30412 14.186 8.03345C14.3727 7.75345 14.4987 7.49212 14.564 7.24945C14.6293 7.00679 14.662 6.77812 14.662 6.56345C14.662 5.99412 14.466 5.54612 14.074 5.21945C13.6913 4.89279 13.122 4.72945 12.366 4.72945C11.7873 4.72945 11.274 4.81812 10.826 4.99545C10.3873 5.17279 10.0093 5.44812 9.69199 5.82145L8.97799 5.20545C9.36066 4.75745 9.85066 4.41212 10.448 4.16945C11.0453 3.92679 11.7127 3.80545 12.45 3.80545C13.1127 3.80545 13.6867 3.91279 14.172 4.12745C14.6573 4.33279 15.0307 4.63612 15.292 5.03745C15.5627 5.43879 15.698 5.91012 15.698 6.45145C15.698 6.76879 15.6513 7.08145 15.558 7.38945C15.474 7.69745 15.3153 8.02412 15.082 8.36945C14.858 8.70545 14.5267 9.08812 14.088 9.51745L10.35 13.1855L10.07 12.7935H16.146V13.6895H9.27199ZM20.505 13.7735C19.805 13.7735 19.1377 13.6615 18.503 13.4375C17.8684 13.2041 17.3644 12.8961 16.991 12.5135L17.481 11.7155C17.789 12.0421 18.209 12.3128 18.741 12.5275C19.2824 12.7421 19.8657 12.8495 20.491 12.8495C21.3217 12.8495 21.9517 12.6675 22.381 12.3035C22.8197 11.9301 23.039 11.4448 23.039 10.8475C23.039 10.4275 22.9364 10.0681 22.731 9.76945C22.535 9.46145 22.199 9.22345 21.723 9.05545C21.247 8.88745 20.5937 8.80345 19.763 8.80345H17.677L18.181 3.88945H23.543V4.78545H18.587L19.105 4.29545L18.671 8.41145L18.153 7.90745H19.987C20.9764 7.90745 21.7697 8.02879 22.367 8.27145C22.9644 8.51412 23.3937 8.85479 23.655 9.29345C23.9257 9.72279 24.061 10.2268 24.061 10.8055C24.061 11.3561 23.9304 11.8601 23.669 12.3175C23.4077 12.7655 23.0157 13.1201 22.493 13.3815C21.9704 13.6428 21.3077 13.7735 20.505 13.7735Z" fill="#908B93"/>
<line x1="31.1503" y1="8.68867" x2="530.327" y2="8.68867" stroke="#F8F7F9" stroke-width="0.769147" stroke-linecap="round"/>
<path d="M7.95949 66.6875V65.9735L12.0335 61.9835C12.4068 61.6195 12.6868 61.3022 12.8735 61.0315C13.0602 60.7515 13.1862 60.4902 13.2515 60.2475C13.3168 60.0048 13.3495 59.7762 13.3495 59.5615C13.3495 58.9922 13.1535 58.5442 12.7615 58.2175C12.3788 57.8908 11.8095 57.7275 11.0535 57.7275C10.4748 57.7275 9.96149 57.8162 9.51349 57.9935C9.07482 58.1708 8.69682 58.4462 8.37949 58.8195L7.66549 58.2035C8.04816 57.7555 8.53816 57.4102 9.13549 57.1675C9.73282 56.9248 10.4002 56.8035 11.1375 56.8035C11.8002 56.8035 12.3742 56.9108 12.8595 57.1255C13.3448 57.3308 13.7182 57.6342 13.9795 58.0355C14.2502 58.4368 14.3855 58.9082 14.3855 59.4495C14.3855 59.7668 14.3388 60.0795 14.2455 60.3875C14.1615 60.6955 14.0028 61.0222 13.7695 61.3675C13.5455 61.7035 13.2142 62.0862 12.7755 62.5155L9.03749 66.1835L8.75749 65.7915H14.8335V66.6875H7.95949ZM19.9772 66.7715C19.2212 66.7715 18.5492 66.5755 17.9612 66.1835C17.3732 65.7822 16.9112 65.2128 16.5752 64.4755C16.2392 63.7288 16.0712 62.8328 16.0712 61.7875C16.0712 60.7422 16.2392 59.8508 16.5752 59.1135C16.9112 58.3668 17.3732 57.7975 17.9612 57.4055C18.5492 57.0042 19.2212 56.8035 19.9772 56.8035C20.7332 56.8035 21.4052 57.0042 21.9932 57.4055C22.5812 57.7975 23.0432 58.3668 23.3792 59.1135C23.7245 59.8508 23.8972 60.7422 23.8972 61.7875C23.8972 62.8328 23.7245 63.7288 23.3792 64.4755C23.0432 65.2128 22.5812 65.7822 21.9932 66.1835C21.4052 66.5755 20.7332 66.7715 19.9772 66.7715ZM19.9772 65.8475C20.5558 65.8475 21.0598 65.6935 21.4892 65.3855C21.9185 65.0682 22.2545 64.6108 22.4972 64.0135C22.7398 63.4068 22.8612 62.6648 22.8612 61.7875C22.8612 60.9102 22.7398 60.1728 22.4972 59.5755C22.2545 58.9688 21.9185 58.5115 21.4892 58.2035C21.0598 57.8862 20.5558 57.7275 19.9772 57.7275C19.4172 57.7275 18.9178 57.8862 18.4792 58.2035C18.0405 58.5115 17.6998 58.9688 17.4572 59.5755C17.2145 60.1728 17.0932 60.9102 17.0932 61.7875C17.0932 62.6648 17.2145 63.4068 17.4572 64.0135C17.6998 64.6108 18.0405 65.0682 18.4792 65.3855C18.9178 65.6935 19.4172 65.8475 19.9772 65.8475Z" fill="#908B93"/>
<line x1="31.1503" y1="61.6877" x2="530.327" y2="61.6877" stroke="#F8F7F9" stroke-width="0.769147" stroke-linecap="round"/>
<path d="M14.0604 117.764V108.384L14.5084 108.86H11.7504V107.964H15.0684V117.764H14.0604ZM20.505 117.848C19.805 117.848 19.1377 117.736 18.503 117.512C17.8684 117.278 17.3644 116.97 16.991 116.588L17.481 115.79C17.789 116.116 18.209 116.387 18.741 116.602C19.2824 116.816 19.8657 116.924 20.491 116.924C21.3217 116.924 21.9517 116.742 22.381 116.378C22.8197 116.004 23.039 115.519 23.039 114.922C23.039 114.502 22.9364 114.142 22.731 113.844C22.535 113.536 22.199 113.298 21.723 113.13C21.247 112.962 20.5937 112.878 19.763 112.878H17.677L18.181 107.964H23.543V108.86H18.587L19.105 108.37L18.671 112.486L18.153 111.982H19.987C20.9764 111.982 21.7697 112.103 22.367 112.346C22.9644 112.588 23.3937 112.929 23.655 113.368C23.9257 113.797 24.061 114.301 24.061 114.88C24.061 115.43 23.9304 115.934 23.669 116.392C23.4077 116.84 23.0157 117.194 22.493 117.456C21.9704 117.717 21.3077 117.848 20.505 117.848Z" fill="#908B93"/>
<line x1="31.1503" y1="112.763" x2="530.327" y2="112.763" stroke="#F8F7F9" stroke-width="0.769147" stroke-linecap="round"/>
<path d="M12.7206 168.839V159.459L13.1686 159.935H10.4106V159.039H13.7286V168.839H12.7206ZM19.9772 168.923C19.2212 168.923 18.5492 168.727 17.9612 168.335C17.3732 167.934 16.9112 167.364 16.5752 166.627C16.2392 165.88 16.0712 164.984 16.0712 163.939C16.0712 162.894 16.2392 162.002 16.5752 161.265C16.9112 160.518 17.3732 159.949 17.9612 159.557C18.5492 159.156 19.2212 158.955 19.9772 158.955C20.7332 158.955 21.4052 159.156 21.9932 159.557C22.5812 159.949 23.0432 160.518 23.3792 161.265C23.7245 162.002 23.8972 162.894 23.8972 163.939C23.8972 164.984 23.7245 165.88 23.3792 166.627C23.0432 167.364 22.5812 167.934 21.9932 168.335C21.4052 168.727 20.7332 168.923 19.9772 168.923ZM19.9772 167.999C20.5558 167.999 21.0598 167.845 21.4892 167.537C21.9185 167.22 22.2545 166.762 22.4972 166.165C22.7398 165.558 22.8612 164.816 22.8612 163.939C22.8612 163.062 22.7398 162.324 22.4972 161.727C22.2545 161.12 21.9185 160.663 21.4892 160.355C21.0598 160.038 20.5558 159.879 19.9772 159.879C19.4172 159.879 18.9178 160.038 18.4792 160.355C18.0405 160.663 17.6998 161.12 17.4572 161.727C17.2145 162.324 17.0932 163.062 17.0932 163.939C17.0932 164.816 17.2145 165.558 17.4572 166.165C17.6998 166.762 18.0405 167.22 18.4792 167.537C18.9178 167.845 19.4172 167.999 19.9772 167.999Z" fill="#908B93"/>
<line x1="31.1503" y1="163.839" x2="530.327" y2="163.839" stroke="#F8F7F9" stroke-width="0.769147" stroke-linecap="round"/>
<path d="M20.505 219.998C19.805 219.998 19.1377 219.886 18.503 219.662C17.8684 219.429 17.3644 219.121 16.991 218.738L17.481 217.94C17.789 218.267 18.209 218.537 18.741 218.752C19.2824 218.967 19.8657 219.074 20.491 219.074C21.3217 219.074 21.9517 218.892 22.381 218.528C22.8197 218.155 23.039 217.669 23.039 217.072C23.039 216.652 22.9364 216.293 22.731 215.994C22.535 215.686 22.199 215.448 21.723 215.28C21.247 215.112 20.5937 215.028 19.763 215.028H17.677L18.181 210.114H23.543V211.01H18.587L19.105 210.52L18.671 214.636L18.153 214.132H19.987C20.9764 214.132 21.7697 214.253 22.367 214.496C22.9644 214.739 23.3937 215.079 23.655 215.518C23.9257 215.947 24.061 216.451 24.061 217.03C24.061 217.581 23.9304 218.085 23.669 218.542C23.4077 218.99 23.0157 219.345 22.493 219.606C21.9704 219.867 21.3077 219.998 20.505 219.998Z" fill="#908B93"/>
<line x1="31.1503" y1="214.914" x2="530.327" y2="214.914" stroke="#F8F7F9" stroke-width="0.769147" stroke-linecap="round"/>
<path d="M19.9772 271.074C19.2212 271.074 18.5492 270.878 17.9612 270.486C17.3732 270.085 16.9112 269.516 16.5752 268.778C16.2392 268.032 16.0712 267.136 16.0712 266.09C16.0712 265.045 16.2392 264.154 16.5752 263.416C16.9112 262.67 17.3732 262.1 17.9612 261.708C18.5492 261.307 19.2212 261.106 19.9772 261.106C20.7332 261.106 21.4052 261.307 21.9932 261.708C22.5812 262.1 23.0432 262.67 23.3792 263.416C23.7245 264.154 23.8972 265.045 23.8972 266.09C23.8972 267.136 23.7245 268.032 23.3792 268.778C23.0432 269.516 22.5812 270.085 21.9932 270.486C21.4052 270.878 20.7332 271.074 19.9772 271.074ZM19.9772 270.15C20.5558 270.15 21.0598 269.996 21.4892 269.688C21.9185 269.371 22.2545 268.914 22.4972 268.316C22.7398 267.71 22.8612 266.968 22.8612 266.09C22.8612 265.213 22.7398 264.476 22.4972 263.878C22.2545 263.272 21.9185 262.814 21.4892 262.506C21.0598 262.189 20.5558 262.03 19.9772 262.03C19.4172 262.03 18.9178 262.189 18.4792 262.506C18.0405 262.814 17.6998 263.272 17.4572 263.878C17.2145 264.476 17.0932 265.213 17.0932 266.09C17.0932 266.968 17.2145 267.71 17.4572 268.316C17.6998 268.914 18.0405 269.371 18.4792 269.688C18.9178 269.996 19.4172 270.15 19.9772 270.15Z" fill="#908B93"/>
<line x1="31.1503" y1="265.99" x2="530.327" y2="265.99" stroke="#F8F7F9" stroke-width="0.769147" stroke-linecap="round"/>
</svg>
