<svg width="17" height="18" viewBox="0 0 17 18" fill="none" xmlns="http://www.w3.org/2000/svg">
<path d="M6.48278 14.0001C6.7284 14.0001 6.96396 13.9122 7.13764 13.7559C7.31132 13.5996 7.40889 13.3876 7.40889 13.1666V8.16556C7.40889 7.9445 7.31132 7.7325 7.13764 7.57619C6.96396 7.41988 6.7284 7.33206 6.48278 7.33206C6.23716 7.33206 6.0016 7.41988 5.82792 7.57619C5.65424 7.7325 5.55667 7.9445 5.55667 8.16556V13.1666C5.55667 13.3876 5.65424 13.5996 5.82792 13.7559C6.0016 13.9122 6.23716 14.0001 6.48278 14.0001ZM15.7439 3.99806H12.0394V3.16456C12.0394 2.50139 11.7467 1.86538 11.2257 1.39644C10.7047 0.927507 9.99797 0.664063 9.26111 0.664062H7.40889C6.67203 0.664063 5.96535 0.927507 5.44431 1.39644C4.92327 1.86538 4.63056 2.50139 4.63056 3.16456V3.99806H0.926111C0.680491 3.99806 0.444931 4.08588 0.271252 4.24219C0.0975721 4.3985 0 4.6105 0 4.83156C0 5.05262 0.0975721 5.26462 0.271252 5.42094C0.444931 5.57725 0.680491 5.66506 0.926111 5.66506H1.85222V14.8336C1.85222 15.4967 2.14494 16.1327 2.66598 16.6017C3.18702 17.0706 3.8937 17.3341 4.63056 17.3341H12.0394C12.7763 17.3341 13.483 17.0706 14.004 16.6017C14.5251 16.1327 14.8178 15.4967 14.8178 14.8336V5.66506H15.7439C15.9895 5.66506 16.2251 5.57725 16.3987 5.42094C16.5724 5.26462 16.67 5.05262 16.67 4.83156C16.67 4.6105 16.5724 4.3985 16.3987 4.24219C16.2251 4.08588 15.9895 3.99806 15.7439 3.99806ZM6.48278 3.16456C6.48278 2.9435 6.58035 2.7315 6.75403 2.57519C6.92771 2.41888 7.16327 2.33106 7.40889 2.33106H9.26111C9.50673 2.33106 9.74229 2.41888 9.91597 2.57519C10.0897 2.7315 10.1872 2.9435 10.1872 3.16456V3.99806H6.48278V3.16456ZM12.9656 14.8336C12.9656 15.0546 12.868 15.2666 12.6943 15.4229C12.5206 15.5792 12.2851 15.6671 12.0394 15.6671H4.63056C4.38494 15.6671 4.14938 15.5792 3.9757 15.4229C3.80202 15.2666 3.70444 15.0546 3.70444 14.8336V5.66506H12.9656V14.8336ZM10.1872 14.0001C10.4328 14.0001 10.6684 13.9122 10.8421 13.7559C11.0158 13.5996 11.1133 13.3876 11.1133 13.1666V8.16556C11.1133 7.9445 11.0158 7.7325 10.8421 7.57619C10.6684 7.41988 10.4328 7.33206 10.1872 7.33206C9.9416 7.33206 9.70604 7.41988 9.53236 7.57619C9.35868 7.7325 9.26111 7.9445 9.26111 8.16556V13.1666C9.26111 13.3876 9.35868 13.5996 9.53236 13.7559C9.70604 13.9122 9.9416 14.0001 10.1872 14.0001Z" fill="#424866"/>
</svg>
