<svg width="16" height="19" viewBox="0 0 16 19" fill="none" xmlns="http://www.w3.org/2000/svg">
<path d="M15.8373 8.77666C15.6279 7.75297 15.2186 6.78064 14.6329 5.91532C14.0574 5.06402 13.3242 4.33081 12.4729 3.75533C11.6075 3.16984 10.6352 2.76057 9.61155 2.55088C9.07386 2.44184 8.5264 2.38823 7.97777 2.39088V0.611328L4.44444 3.27799L7.97777 5.94466V4.16866C8.40799 4.16688 8.83822 4.20777 9.25333 4.2931C10.0489 4.45613 10.8046 4.77418 11.4773 5.2291C12.1408 5.67643 12.7118 6.24744 13.1591 6.91088C13.8536 7.93775 14.224 9.14942 14.2222 10.3891C14.2221 11.221 14.0558 12.0445 13.7333 12.8113C13.5765 13.1807 13.3848 13.5343 13.1609 13.8673C12.9361 14.1983 12.6807 14.5075 12.3982 14.7909C11.5378 15.6497 10.4454 16.2388 9.2551 16.486C8.42731 16.6531 7.57446 16.6531 6.74666 16.486C5.95071 16.3228 5.1947 16.0044 4.52177 15.5491C3.85909 15.1022 3.2887 14.5318 2.84178 13.8691C2.14805 12.8411 1.77751 11.6292 1.77778 10.3891H0C0.000945929 11.9835 0.477232 13.5414 1.368 14.8638C1.94386 15.7137 2.67632 16.4461 3.52622 17.022C4.84677 17.9157 6.40543 18.392 7.99999 18.3891C8.54157 18.389 9.08177 18.3345 9.61244 18.2264C10.6353 18.0152 11.607 17.6061 12.4729 17.022C12.898 16.7355 13.2943 16.4083 13.656 16.0451C14.0182 15.6819 14.3456 15.2855 14.6338 14.8611C15.5268 13.5409 16.0027 11.983 16 10.3891C15.9999 9.84752 15.9454 9.30733 15.8373 8.77666Z" fill="#1640C1"/>
<path d="M7.99967 13.056C9.485 13.056 10.6663 11.8729 10.6663 10.3893C10.6663 8.90577 9.485 7.72266 7.99967 7.72266C6.51434 7.72266 5.33301 8.90577 5.33301 10.3893C5.33301 11.8729 6.51434 13.056 7.99967 13.056Z" fill="#1640C1"/>
</svg>
